<svg width="88" height="16" viewBox="0 0 88 16" fill="none" xmlns="http://www.w3.org/2000/svg">
<path d="M9.33301 0C4.92501 0 1.33301 3.592 1.33301 8C1.33301 12.408 4.92501 16 9.33301 16C13.741 16 17.333 12.4133 17.333 8C17.333 3.592 13.7463 0 9.33301 0Z" fill="#00A568"/>
<path d="M26.667 0C22.259 0 18.667 3.592 18.667 8C18.667 12.408 22.259 16 26.667 16C31.075 16 34.667 12.4133 34.667 8C34.667 3.592 31.0803 0 26.667 0Z" fill="#00A568"/>
<path d="M44 0C39.592 0 36 3.592 36 8C36 12.408 39.592 16 44 16C48.408 16 52 12.4133 52 8C52 3.592 48.4133 0 44 0Z" fill="#00A568"/>
<path d="M61.333 0C56.925 0 53.333 3.592 53.333 8C53.333 12.408 56.925 16 61.333 16C65.741 16 69.333 12.4133 69.333 8C69.333 3.592 65.7463 0 61.333 0ZM61.333 1.33333C62.2086 1.33228 63.0758 1.50402 63.885 1.83872C64.6941 2.17342 65.4292 2.6645 66.0482 3.28381C66.6672 3.90312 67.1579 4.63849 67.4922 5.44778C67.8265 6.25708 67.9978 7.12438 67.9963 8C67.9963 8.87548 67.8239 9.74239 67.4889 10.5512C67.1538 11.3601 66.6628 12.095 66.0437 12.714C65.4247 13.3331 64.6897 13.8242 63.8809 14.1592C63.0721 14.4942 62.2052 14.6667 61.3297 14.6667C59.5621 14.6658 57.8673 13.963 56.6178 12.7129C55.3683 11.4627 54.6663 9.76753 54.6663 8C54.6663 6.23189 55.3687 4.5362 56.619 3.28595C57.8692 2.03571 59.5649 1.33333 61.333 1.33333Z" fill="#00A568"/>
<path d="M78.667 0C74.259 0 70.667 3.592 70.667 8C70.667 12.408 74.259 16 78.667 16C83.075 16 86.667 12.4133 86.667 8C86.667 3.592 83.0803 0 78.667 0ZM78.667 1.33333C79.5426 1.33228 80.4098 1.50402 81.219 1.83872C82.0281 2.17342 82.7632 2.6645 83.3822 3.28381C84.0012 3.90312 84.4919 4.63849 84.8262 5.44778C85.1605 6.25708 85.3318 7.12438 85.3303 8C85.3303 8.87548 85.1579 9.74239 84.8229 10.5512C84.4878 11.3601 83.9968 12.095 83.3777 12.714C82.7586 13.3331 82.0237 13.8242 81.2149 14.1592C80.406 14.4942 79.5391 14.6667 78.6637 14.6667C76.8961 14.6658 75.2013 13.963 73.9518 12.7129C72.7022 11.4627 72.0003 9.76753 72.0003 8C72.0003 6.23189 72.7027 4.5362 73.9529 3.28595C75.2032 2.03571 76.8989 1.33333 78.667 1.33333Z" fill="#00A568"/>
</svg>
