<svg width="189" height="41" viewBox="0 0 189 41" fill="none" xmlns="http://www.w3.org/2000/svg">
<path d="M187.378 26.8552C186.795 26.8552 186.322 27.3289 186.322 27.912C186.322 28.4952 186.795 28.9688 187.378 28.9688C187.961 28.9688 188.435 28.4952 188.435 27.912C188.435 27.3289 187.961 26.8552 187.378 26.8552ZM187.378 28.8012C186.887 28.8012 186.489 28.4012 186.489 27.912C186.489 27.4204 186.889 27.0228 187.378 27.0228C187.87 27.0228 188.27 27.4227 188.27 27.912C188.27 28.4013 187.87 28.8012 187.378 28.8012ZM187.722 27.731C187.722 27.5389 187.586 27.4249 187.385 27.4249H187.048V28.3879H187.213V28.0394H187.394L187.568 28.3879H187.747L187.555 28.0036C187.658 27.9567 187.722 27.8628 187.722 27.731ZM187.378 27.8896H187.215V27.5702H187.378C187.49 27.5702 187.557 27.626 187.557 27.7288C187.557 27.8338 187.488 27.8896 187.378 27.8896ZM60.0453 16.1602V13.6042H56.1266V28.8101H60.0453V19.6925C60.0453 18.0414 61.1044 17.2303 62.7554 17.2303H64.9003V13.6043H63.0682C61.6339 13.6042 60.3872 14.3527 60.0453 16.1602ZM68.571 7.58984C67.2305 7.58984 66.2028 8.64886 66.2028 9.98937C66.2028 11.2986 67.2305 12.3576 68.571 12.3576C69.9115 12.3576 70.9393 11.2986 70.9393 9.98937C70.9392 8.64881 69.9115 7.58984 68.571 7.58984ZM66.6161 28.8102H70.526V13.6042H66.6161V28.8102ZM89.1501 21.2072C89.1501 25.5482 85.6313 29.0671 81.2902 29.0671C79.5386 29.0671 77.9501 28.4929 76.6766 27.5232V33.2741H72.7668V13.6042H76.6766V14.8911C77.9501 13.9215 79.5386 13.3473 81.2902 13.3473C85.6313 13.3473 89.1501 16.8662 89.1501 21.2072ZM85.2157 21.2072C85.2157 18.8501 83.3033 16.9376 80.9462 16.9376C78.5891 16.9376 76.6766 18.8501 76.6766 21.2072C76.6766 23.5643 78.5891 25.4767 80.9462 25.4767C83.3033 25.4767 85.2157 23.5665 85.2157 21.2072ZM157.105 19.8734L154.824 19.2478C153.323 18.8568 152.74 18.3966 152.74 17.6035C152.74 16.8304 153.562 16.2897 154.737 16.2897C155.856 16.2897 156.734 17.0225 156.734 17.9609V18.048H160.338V17.9609C160.338 15.2016 158.088 13.3473 154.737 13.3473C151.419 13.3473 149.008 15.1994 149.008 17.7531C149.008 19.7393 150.324 21.2362 152.621 21.8572L154.806 22.4538C156.466 22.914 157.083 23.4235 157.083 24.3373C157.083 25.3002 156.191 25.9481 154.864 25.9481C153.481 25.9481 152.55 25.0723 152.55 23.772V23.6848H148.725V23.772C148.725 26.8909 151.236 29.0715 154.833 29.0715C158.298 29.0715 160.814 26.9423 160.814 24.011C160.814 22.5722 160.17 20.6911 157.105 19.8734ZM103.02 13.6042H106.93V28.8101H103.02V27.5232C101.746 28.4929 100.158 29.067 98.4063 29.067C94.0654 29.067 90.5465 25.5482 90.5465 21.2071C90.5465 16.8661 94.0654 13.3473 98.4063 13.3473C100.158 13.3473 101.746 13.9214 103.02 14.8911V13.6042ZM103.02 21.2072C103.02 18.8479 101.107 16.9376 98.7504 16.9376C96.3933 16.9376 94.4809 18.8501 94.4809 21.2072C94.4809 23.5643 96.3933 25.4767 98.7504 25.4767C101.11 25.4767 103.02 23.5665 103.02 21.2072ZM121.048 8.19306H124.957V28.8123H121.048V27.5254C119.774 28.4951 118.186 29.0693 116.434 29.0693C112.093 29.0693 108.574 25.5504 108.574 21.2094C108.574 16.8683 112.093 13.3495 116.434 13.3495C118.186 13.3495 119.774 13.9237 121.048 14.8933V8.19306ZM121.048 21.2072C121.048 18.8501 119.135 16.9376 116.778 16.9376C114.421 16.9376 112.508 18.8501 112.508 21.2072C112.508 23.5643 114.419 25.4767 116.778 25.4767C119.135 25.4767 121.048 23.5665 121.048 21.2072ZM143.11 28.8102H147.02V13.6042H143.11V28.8102ZM145.065 7.58984C143.725 7.58984 142.697 8.64886 142.697 9.98937C142.697 11.2986 143.725 12.3576 145.065 12.3576C146.406 12.3576 147.433 11.2986 147.433 9.98937C147.433 8.64881 146.406 7.58984 145.065 7.58984ZM177.713 21.2072C177.713 25.5482 174.194 29.0671 169.853 29.0671C165.512 29.0671 161.993 25.5482 161.993 21.2072C161.993 16.8661 165.512 13.3473 169.853 13.3473C174.194 13.3473 177.713 16.8662 177.713 21.2072ZM174.123 21.2072C174.123 18.8501 172.21 16.9376 169.853 16.9376C167.496 16.9376 165.584 18.8501 165.584 21.2072C165.584 23.5643 167.494 25.4767 169.853 25.4767C172.21 25.4767 174.123 23.5665 174.123 21.2072ZM58.0435 8.19306H43.0454V11.6806H48.5974V28.8101H52.4938V11.6806H58.0458V8.19306H58.0435ZM133.892 24.6456L130.413 13.6043H126.307L131.524 28.8102H136.229L141.477 13.6043H137.37L133.892 24.6456ZM183.442 16.1602V13.6042H179.523V28.8101H183.442V19.6925C183.442 18.0414 184.501 17.2303 186.152 17.2303H188.297V13.6043H186.465C185.03 13.6042 183.786 14.3527 183.442 16.1602Z" fill="black"/>
<path d="M20.431 40.1247C31.4745 40.1247 40.427 31.1722 40.427 20.1288C40.427 9.0853 31.4745 0.132812 20.431 0.132812C9.38755 0.132812 0.435059 9.0853 0.435059 20.1288C0.435059 31.1722 9.38755 40.1247 20.431 40.1247Z" fill="#34E0A1"/>
<path d="M32.7815 16.2277L35.1944 13.6025H29.8435C27.1648 11.7727 23.9296 10.707 20.4309 10.707C16.9366 10.707 13.7105 11.775 11.0361 13.6025H5.67188L8.0848 16.2277C6.60579 17.5772 5.6786 19.5209 5.6786 21.6792C5.6786 25.7521 8.98077 29.0542 13.0537 29.0542C14.9885 29.0542 16.7512 28.308 18.0672 27.0881L20.431 29.6619L22.7947 27.0903C24.1107 28.3102 25.8712 29.0542 27.806 29.0542C31.8789 29.0542 35.1855 25.7521 35.1855 21.6792C35.1877 19.5187 34.2605 17.575 32.7815 16.2277ZM13.0559 26.6703C10.2989 26.6703 8.06473 24.4362 8.06473 21.6792C8.06473 18.9221 10.2989 16.688 13.0559 16.688C15.8128 16.688 18.047 18.9221 18.047 21.6792C18.047 24.4362 15.8128 26.6703 13.0559 26.6703ZM20.4331 21.5339C20.4331 18.2497 18.0448 15.4301 14.8924 14.2259C16.597 13.5131 18.4671 13.1177 20.4309 13.1177C22.3947 13.1177 24.2669 13.5131 25.9717 14.2259C22.8215 15.4324 20.4331 18.2497 20.4331 21.5339ZM27.8082 26.6703C25.0512 26.6703 22.817 24.4362 22.817 21.6792C22.817 18.9221 25.0512 16.688 27.8082 16.688C30.5652 16.688 32.7994 18.9221 32.7994 21.6792C32.7994 24.4362 30.5652 26.6703 27.8082 26.6703ZM27.8082 19.0606C26.3627 19.0606 25.1919 20.2314 25.1919 21.6769C25.1919 23.1224 26.3627 24.2931 27.8082 24.2931C29.2537 24.2931 30.4244 23.1224 30.4244 21.6769C30.4244 20.2336 29.2537 19.0606 27.8082 19.0606ZM15.6721 21.6792C15.6721 23.1247 14.5014 24.2954 13.0559 24.2954C11.6104 24.2954 10.4397 23.1247 10.4397 21.6792C10.4397 20.2336 11.6104 19.0629 13.0559 19.0629C14.5014 19.0606 15.6721 20.2336 15.6721 21.6792Z" fill="black"/>
</svg>
