<svg width="33" height="33" viewBox="0 0 33 33" fill="none" xmlns="http://www.w3.org/2000/svg">
<g clip-path="url(#clip0_2_4095)">
<g clip-path="url(#clip1_2_4095)">
<g clip-path="url(#clip2_2_4095)">
<path d="M32.4351 16.1289C32.4351 24.9734 25.2795 32.1289 16.4351 32.1289C7.59061 32.1289 0.435059 24.9734 0.435059 16.1289C0.435059 7.28446 7.59061 0.128906 16.4351 0.128906C25.2795 0.128906 32.4351 7.28446 32.4351 16.1289Z" fill="#34E0A1"/>
<path d="M26.3017 12.9742L28.2128 10.8853H23.9461C21.8128 9.41866 19.235 8.57422 16.435 8.57422C13.635 8.57422 11.0572 9.41866 8.92389 10.8853H4.65723L6.56834 12.9742C5.36834 14.0409 4.65723 15.5964 4.65723 17.3298C4.65723 20.5742 7.27945 23.1964 10.5239 23.1964C12.0794 23.1964 13.4572 22.6187 14.5239 21.6409L16.435 23.6853L18.3017 21.6409C19.3683 22.6187 20.7461 23.1964 22.3017 23.1964C25.5461 23.1964 28.1683 20.5742 28.1683 17.3298C28.2128 15.5964 27.4572 14.0409 26.3017 12.9742ZM10.5683 21.2853C8.34612 21.2853 6.56834 19.5076 6.56834 17.2853C6.56834 15.0631 8.34612 13.2853 10.5683 13.2853C12.7906 13.2853 14.5683 15.0631 14.5683 17.2853C14.5239 19.5076 12.7461 21.2853 10.5683 21.2853ZM16.435 17.1964C16.435 14.5742 14.5239 12.3076 12.035 11.3742C13.4128 10.7964 14.8794 10.4853 16.435 10.4853C17.9906 10.4853 19.5017 10.7964 20.835 11.3742C18.3461 12.352 16.435 14.5742 16.435 17.1964ZM22.3017 21.2853C20.0794 21.2853 18.3017 19.5076 18.3017 17.2853C18.3017 15.0631 20.0794 13.2853 22.3017 13.2853C24.5239 13.2853 26.3017 15.0631 26.3017 17.2853C26.3017 19.5076 24.5239 21.2853 22.3017 21.2853ZM22.3017 15.2409C21.1461 15.2409 20.2128 16.1742 20.2128 17.3298C20.2128 18.4853 21.1461 19.4187 22.3017 19.4187C23.4572 19.4187 24.3906 18.4853 24.3906 17.3298C24.3906 16.1742 23.4572 15.2409 22.3017 15.2409ZM12.6572 17.3298C12.6572 18.4853 11.7239 19.4187 10.5683 19.4187C9.41278 19.4187 8.47945 18.4853 8.47945 17.3298C8.47945 16.1742 9.41278 15.2409 10.5683 15.2409C11.7239 15.2409 12.6572 16.1742 12.6572 17.3298Z" fill="black"/>
</g>
</g>
</g>
<defs>
<clipPath id="clip0_2_4095">
<rect width="32" height="32" fill="white" transform="translate(0.435059 0.128906)"/>
</clipPath>
<clipPath id="clip1_2_4095">
<rect width="32" height="32" fill="white" transform="translate(0.435059 0.128906)"/>
</clipPath>
<clipPath id="clip2_2_4095">
<rect width="32" height="32" fill="white" transform="translate(0.435059 0.128906)"/>
</clipPath>
</defs>
</svg>
