<svg width="41" height="41" viewBox="0 0 41 41" fill="none" xmlns="http://www.w3.org/2000/svg">
<path d="M40.4351 0.628906H0.435059V40.6289H40.4351V0.628906Z" fill="#FF5D5D"/>
<path d="M20.1355 27.4947C25.0814 27.4947 29.0908 23.4852 29.0908 18.5393C29.0908 13.5934 25.0814 9.58398 20.1355 9.58398C15.1896 9.58398 11.1802 13.5934 11.1802 18.5393C11.1802 23.4852 15.1896 27.4947 20.1355 27.4947Z" fill="#FFCCCC"/>
<path d="M19.9046 61.6608C29.3395 61.6608 36.988 54.0123 36.988 44.5775C36.988 35.1426 29.3395 27.4941 19.9046 27.4941C10.4698 27.4941 2.82129 35.1426 2.82129 44.5775C2.82129 54.0123 10.4698 61.6608 19.9046 61.6608Z" fill="#00AA6C"/>
</svg>
